<svg viewBox="0 0 16 16" fill="none" xmlns="http://www.w3.org/2000/svg" id="Calendar--Streamline-Radix" height="16" width="16"><desc>Calendar Streamline Icon: https://streamlinehq.com</desc><path fill-rule="evenodd" clip-rule="evenodd" d="M4.8 1.0666666666666667c0.29454933333333333 0 0.5333333333333333 0.238784 0.5333333333333333 0.5333333333333333V2.1333333333333333h5.333333333333333v-0.5333333333333333c0 -0.29454933333333333 0.23882666666666666 -0.5333333333333333 0.5333333333333333 -0.5333333333333333s0.5333333333333333 0.238784 0.5333333333333333 0.5333333333333333V2.1333333333333333h1.6c0.8836266666666667 0 1.6 0.7163413333333333 1.6 1.6v9.6c0 0.8836266666666667 -0.7163733333333333 1.6 -1.6 1.6h-10.666666666666666c-0.8836586666666667 0 -1.6 -0.7163733333333333 -1.6 -1.6v-9.6C1.0666666666666667 2.8496746666666666 1.783008 2.1333333333333333 2.6666666666666665 2.1333333333333333H4.266666666666667v-0.5333333333333333c0 -0.29454933333333333 0.238784 -0.5333333333333333 0.5333333333333333 -0.5333333333333333ZM10.666666666666666 3.2v0.5333333333333333c0 0.29454933333333333 0.23882666666666666 0.5333333333333333 0.5333333333333333 0.5333333333333333s0.5333333333333333 -0.238784 0.5333333333333333 -0.5333333333333333V3.2h1.6c0.2945066666666667 0 0.5333333333333333 0.238784 0.5333333333333333 0.5333333333333333V5.333333333333333H2.1333333333333333V3.7333333333333334c0 -0.29454933333333333 0.238784 -0.5333333333333333 0.5333333333333333 -0.5333333333333333H4.266666666666667v0.5333333333333333c0 0.29454933333333333 0.238784 0.5333333333333333 0.5333333333333333 0.5333333333333333s0.5333333333333333 -0.238784 0.5333333333333333 -0.5333333333333333V3.2h5.333333333333333ZM2.1333333333333333 6.4v6.933333333333334c0 0.2945066666666667 0.238784 0.5333333333333333 0.5333333333333333 0.5333333333333333h10.666666666666666c0.2945066666666667 0 0.5333333333333333 -0.23882666666666666 0.5333333333333333 -0.5333333333333333V6.4H2.1333333333333333Zm5.333333333333333 1.6c0 -0.29454933333333333 0.238784 -0.5333333333333333 0.5333333333333333 -0.5333333333333333s0.5333333333333333 0.238784 0.5333333333333333 0.5333333333333333 -0.238784 0.5333333333333333 -0.5333333333333333 0.5333333333333333 -0.5333333333333333 -0.238784 -0.5333333333333333 -0.5333333333333333ZM10.133333333333333 7.466666666666667c-0.29454933333333333 0 -0.5333333333333333 0.238784 -0.5333333333333333 0.5333333333333333s0.238784 0.5333333333333333 0.5333333333333333 0.5333333333333333 0.5333333333333333 -0.238784 0.5333333333333333 -0.5333333333333333 -0.238784 -0.5333333333333333 -0.5333333333333333 -0.5333333333333333Zm1.6 0.5333333333333333c0 -0.29454933333333333 0.23882666666666666 -0.5333333333333333 0.5333333333333333 -0.5333333333333333s0.5333333333333333 0.238784 0.5333333333333333 0.5333333333333333 -0.23882666666666666 0.5333333333333333 -0.5333333333333333 0.5333333333333333 -0.5333333333333333 -0.238784 -0.5333333333333333 -0.5333333333333333Zm0.5333333333333333 1.6c-0.2945066666666667 0 -0.5333333333333333 0.238784 -0.5333333333333333 0.5333333333333333s0.23882666666666666 0.5333333333333333 0.5333333333333333 0.5333333333333333 0.5333333333333333 -0.238784 0.5333333333333333 -0.5333333333333333 -0.23882666666666666 -0.5333333333333333 -0.5333333333333333 -0.5333333333333333ZM9.6 10.133333333333333c0 -0.29454933333333333 0.238784 -0.5333333333333333 0.5333333333333333 -0.5333333333333333s0.5333333333333333 0.238784 0.5333333333333333 0.5333333333333333 -0.238784 0.5333333333333333 -0.5333333333333333 0.5333333333333333 -0.5333333333333333 -0.238784 -0.5333333333333333 -0.5333333333333333ZM8 9.6c-0.29454933333333333 0 -0.5333333333333333 0.238784 -0.5333333333333333 0.5333333333333333s0.238784 0.5333333333333333 0.5333333333333333 0.5333333333333333 0.5333333333333333 -0.238784 0.5333333333333333 -0.5333333333333333 -0.238784 -0.5333333333333333 -0.5333333333333333 -0.5333333333333333ZM5.333333333333333 10.133333333333333c0 -0.29454933333333333 0.238784 -0.5333333333333333 0.5333333333333333 -0.5333333333333333s0.5333333333333333 0.238784 0.5333333333333333 0.5333333333333333 -0.238784 0.5333333333333333 -0.5333333333333333 0.5333333333333333 -0.5333333333333333 -0.238784 -0.5333333333333333 -0.5333333333333333ZM3.7333333333333334 9.6c-0.29454933333333333 0 -0.5333333333333333 0.238784 -0.5333333333333333 0.5333333333333333s0.238784 0.5333333333333333 0.5333333333333333 0.5333333333333333 0.5333333333333333 -0.238784 0.5333333333333333 -0.5333333333333333 -0.238784 -0.5333333333333333 -0.5333333333333333 -0.5333333333333333ZM3.2 12.266666666666666c0 -0.2945066666666667 0.238784 -0.5333333333333333 0.5333333333333333 -0.5333333333333333s0.5333333333333333 0.23882666666666666 0.5333333333333333 0.5333333333333333 -0.238784 0.5333333333333333 -0.5333333333333333 0.5333333333333333 -0.5333333333333333 -0.23882666666666666 -0.5333333333333333 -0.5333333333333333Zm2.6666666666666665 -0.5333333333333333c-0.29454933333333333 0 -0.5333333333333333 0.23882666666666666 -0.5333333333333333 0.5333333333333333s0.238784 0.5333333333333333 0.5333333333333333 0.5333333333333333 0.5333333333333333 -0.23882666666666666 0.5333333333333333 -0.5333333333333333 -0.238784 -0.5333333333333333 -0.5333333333333333 -0.5333333333333333Zm1.6 0.5333333333333333c0 -0.2945066666666667 0.238784 -0.5333333333333333 0.5333333333333333 -0.5333333333333333s0.5333333333333333 0.23882666666666666 0.5333333333333333 0.5333333333333333 -0.238784 0.5333333333333333 -0.5333333333333333 0.5333333333333333 -0.5333333333333333 -0.23882666666666666 -0.5333333333333333 -0.5333333333333333Zm2.6666666666666665 -0.5333333333333333c-0.29454933333333333 0 -0.5333333333333333 0.23882666666666666 -0.5333333333333333 0.5333333333333333s0.238784 0.5333333333333333 0.5333333333333333 0.5333333333333333 0.5333333333333333 -0.23882666666666666 0.5333333333333333 -0.5333333333333333 -0.238784 -0.5333333333333333 -0.5333333333333333 -0.5333333333333333Z" fill="#ffffff" stroke-width="1.0667"></path></svg>