<svg class="svg-icon" style="width: 1em; height: 1em;vertical-align: middle;fill: currentColor;overflow: hidden;" viewBox="0 0 1024 1024" version="1.1" xmlns="http://www.w3.org/2000/svg"><path d="M505.6 569.6V371.2c108.8 0 198.4 89.6 198.4 198.4S614.4 768 505.6 768c-83.2 0-96-19.2-147.2-83.2C448 608 505.6 569.6 505.6 569.6z" fill="#ffffff" /><path d="M787.2 371.2l32-32c6.4-6.4 6.4-19.2 0-32-6.4-6.4-6.4-6.4-12.8-6.4s-12.8 0-12.8 6.4l-32 32c-57.6-64-140.8-102.4-224-108.8V192h70.4c12.8 0 19.2-12.8 19.2-19.2s-12.8-25.6-25.6-25.6H422.4c-12.8 0-19.2 12.8-19.2 19.2s6.4 25.6 19.2 25.6h64v38.4C396.8 236.8 320 275.2 256 339.2l-32-32c-6.4-12.8-19.2-12.8-32 0-6.4 6.4-6.4 19.2 0 25.6l32 32c-44.8 57.6-64 128-64 204.8 0 192 153.6 345.6 345.6 345.6 192 0 345.6-153.6 345.6-345.6 0-70.4-25.6-140.8-64-198.4zM505.6 275.2c166.4 0 300.8 134.4 300.8 300.8s-134.4 300.8-300.8 300.8S204.8 742.4 204.8 576s134.4-300.8 300.8-300.8z" fill="#ffffff" /><path d="M512 800c128 0 230.4-102.4 230.4-230.4S640 339.2 512 339.2c-12.8 0-19.2 12.8-19.2 19.2 0 12.8 12.8 19.2 19.2 19.2 102.4 0 185.6 83.2 185.6 185.6 0 102.4-83.2 185.6-185.6 185.6-57.6 0-108.8-25.6-147.2-70.4-6.4-6.4-6.4-6.4-12.8-6.4s-12.8 0-12.8 6.4c-6.4 6.4-6.4 6.4-6.4 12.8s0 12.8 6.4 12.8c38.4 64 102.4 96 172.8 96z" fill="#ffffff" /><path d="M473.6 563.2c0 19.2 12.8 32 32 32s32-12.8 32-32-6.4-32-25.6-32c-19.2 0-38.4 12.8-38.4 32z" fill="#ffffff" /><path d="M512 614.4c-25.6 0-51.2-25.6-51.2-51.2S480 512 512 512c25.6 0 51.2 25.6 51.2 51.2s-25.6 51.2-51.2 51.2z m0-70.4c-6.4 0-19.2 6.4-19.2 19.2 0 12.8 6.4 19.2 19.2 19.2 6.4 0 19.2-6.4 19.2-19.2-6.4-12.8-12.8-19.2-19.2-19.2z" fill="#ffffff" /><path d="M403.2 678.4c-6.4 0-19.2-6.4-19.2-19.2 0-6.4 0-6.4 6.4-12.8l70.4-64c6.4-6.4 19.2-6.4 25.6 0 6.4 6.4 6.4 19.2 0 25.6l-70.4 64c0 6.4-6.4 6.4-12.8 6.4z" fill="#ffffff" /></svg>